<?xml version="1.0" encoding="UTF-8"?>
<svg id="Capa_1" xmlns="http://www.w3.org/2000/svg" version="1.1" viewBox="0 0 421.74 30.13">
  <!-- Generator: Adobe Illustrator 30.3.0, SVG Export Plug-In . SVG Version: 2.1.3 Build 182)  -->
  <defs>
    <style>
      .st0 {
        opacity: .4;
      }

      .st1 {
        isolation: isolate;
      }

      .st2 {
        fill: #1e1932;
      }
    </style>
  </defs>
  <g id="Grupo_2">
    <g id="INTELLIGENCE" class="st1">
      <g class="st1">
        <path class="st2" d="M154.37,26.92V3.8h4.29v23.12h-4.29Z"/>
        <path class="st2" d="M164.91,26.92V3.8h3.53l14.5,17.84h-1.75V3.8h4.23v23.12h-3.53l-14.47-17.84h1.75v17.84h-4.26Z"/>
        <path class="st2" d="M196.36,26.92V7.43h-7.66v-3.63h19.62v3.63h-7.66v19.49h-4.29Z"/>
        <path class="st2" d="M215.85,23.29h13.05v3.63h-17.34V3.8h16.88v3.63h-12.59v15.86ZM215.52,13.41h11.5v3.54h-11.5v-3.54Z"/>
        <path class="st2" d="M233.69,26.92V3.8h4.29v19.49h12.09v3.63h-16.38Z"/>
        <path class="st2" d="M253.47,26.92V3.8h4.29v19.49h12.09v3.63h-16.38Z"/>
        <path class="st2" d="M273.26,26.92V3.8h4.29v23.12h-4.29Z"/>
        <path class="st2" d="M294.6,27.25c-1.81,0-3.46-.29-4.97-.88s-2.82-1.42-3.95-2.49c-1.12-1.08-1.99-2.33-2.61-3.77-.62-1.43-.93-3.02-.93-4.76s.31-3.33.93-4.76c.62-1.43,1.49-2.69,2.63-3.77,1.13-1.08,2.46-1.91,3.96-2.49,1.51-.58,3.19-.88,5.04-.88s3.69.32,5.27.96c1.57.64,2.9,1.58,3.98,2.81l-2.71,2.64c-.9-.9-1.88-1.57-2.92-2-1.05-.43-2.2-.64-3.45-.64s-2.36.2-3.39.59c-1.02.4-1.91.96-2.66,1.68-.75.73-1.33,1.59-1.75,2.58-.42.99-.63,2.08-.63,3.27s.21,2.25.63,3.25c.42,1,1,1.87,1.75,2.59.75.73,1.63,1.29,2.64,1.68,1.01.4,2.14.59,3.37.59,1.14,0,2.25-.18,3.32-.54,1.07-.36,2.09-.97,3.06-1.83l2.41,3.2c-1.19.97-2.58,1.7-4.16,2.2-1.59.5-3.21.74-4.86.74ZM299.59,23.75v-8.62h4.03v9.18l-4.03-.56Z"/>
        <path class="st2" d="M313.59,23.29h13.05v3.63h-17.34V3.8h16.88v3.63h-12.59v15.86ZM313.26,13.41h11.5v3.54h-11.5v-3.54Z"/>
        <path class="st2" d="M331.43,26.92V3.8h3.53l14.5,17.84h-1.75V3.8h4.23v23.12h-3.53l-14.47-17.84h1.75v17.84h-4.26Z"/>
        <path class="st2" d="M368.89,27.25c-1.78,0-3.42-.29-4.92-.88-1.5-.58-2.8-1.42-3.91-2.49-1.11-1.08-1.98-2.33-2.59-3.77-.62-1.43-.93-3.02-.93-4.76s.31-3.33.93-4.76c.62-1.43,1.49-2.69,2.61-3.77,1.12-1.08,2.43-1.91,3.93-2.49,1.5-.58,3.14-.88,4.92-.88,1.89,0,3.62.33,5.19.97s2.88,1.61,3.96,2.89l-2.78,2.61c-.86-.9-1.81-1.58-2.84-2.03s-2.15-.68-3.34-.68-2.32.2-3.32.59c-1,.4-1.87.96-2.61,1.68-.74.73-1.32,1.59-1.73,2.58-.42.99-.63,2.08-.63,3.27s.21,2.28.63,3.27c.42.99,1,1.85,1.73,2.58.74.73,1.61,1.29,2.61,1.68,1,.4,2.11.59,3.32.59s2.3-.23,3.34-.68,1.98-1.14,2.84-2.06l2.78,2.61c-1.08,1.28-2.4,2.25-3.96,2.91-1.56.66-3.3.99-5.22.99Z"/>
        <path class="st2" d="M386.5,23.29h13.05v3.63h-17.34V3.8h16.88v3.63h-12.59v15.86ZM386.17,13.41h11.5v3.54h-11.5v-3.54Z"/>
      </g>
    </g>
    <g id="Grupo_1" class="st0">
      <path id="Trazado_1" class="st2" d="M23.35,15.51c-.04-4.72-3.89-8.51-8.61-8.48-4.72.04-8.51,3.89-8.48,8.61.04,4.69,3.85,8.48,8.54,8.48,4.73-.02,8.56-3.87,8.54-8.6,0,0,0,0,0,0M27.02,15.51v10.84c0,.29-.24.52-.53.53h-2.6c-.29,0-.53-.23-.53-.52,0,0,0-.01,0-.02v-2.87c-2.17,2.6-5.24,3.97-8.61,3.97-6.77,0-12.14-5.3-12.14-11.94S7.97,3.56,14.81,3.56s12.21,5.3,12.21,11.94h0Z"/>
      <path id="Trazado_2" class="st2" d="M31.22,26.88c-.31,0-.56-.25-.57-.56,0,0,0,0,0,0v-2.2c0-.31.26-.56.57-.57h11.84c2.13,0,3.54-1.43,3.54-3.24s-1.4-3.04-3.54-3.27l-6.24-.7c-3.8-.43-6.81-2.77-6.81-6.34s3.04-6.47,7.21-6.47h10.34c.31,0,.56.25.57.56,0,0,0,0,0,0v2.2c0,.31-.26.56-.57.57h-10.34c-2.13,0-3.54,1.43-3.54,3.1s1.4,2.87,3.54,3.1l6.24.7c3.8.43,6.81,2.8,6.81,6.47s-3.04,6.64-7.21,6.64h-11.84Z"/>
      <path id="Trazado_3" class="st2" d="M71.02,3.53c.3-.01.55.22.57.52,0,.02,0,.03,0,.05v2.2c0,.31-.25.56-.56.57,0,0,0,0,0,0h-7.84v19.45c.01.3-.22.55-.52.57-.02,0-.03,0-.05,0h-2.54c-.3.01-.55-.22-.57-.52,0-.02,0-.03,0-.05V6.87h-7.84c-.31,0-.56-.23-.57-.54,0-.02,0-.04,0-.07v-2.17c-.01-.3.22-.55.52-.57.02,0,.03,0,.05,0h19.35Z"/>
      <path id="Trazado_4" class="st2" d="M92.67,15.51c-.04-4.72-3.89-8.51-8.61-8.48-4.72.04-8.51,3.89-8.48,8.61.04,4.69,3.85,8.48,8.54,8.48,4.73-.02,8.56-3.87,8.54-8.6,0,0,0,0,0,0M96.34,15.51v10.84c0,.29-.24.52-.53.53h-2.6c-.29,0-.53-.23-.53-.52,0,0,0-.01,0-.02v-2.87c-2.17,2.6-5.24,3.97-8.61,3.97-6.77,0-12.14-5.3-12.14-11.94s5.37-11.94,12.21-11.94,12.21,5.3,12.21,11.94h0Z"/>
      <path id="Trazado_5" class="st2" d="M113.59,4.1v2.27c0,.29-.24.53-.53.53-5.54.33-8.71,3.14-8.71,7.37v12.04c0,.31-.25.56-.56.57,0,0,0,0,0,0h-2.54c-.3.01-.55-.22-.57-.52,0-.02,0-.03,0-.05V4.1c-.01-.3.22-.55.52-.57.02,0,.03,0,.05,0h2.54c.31,0,.56.25.57.56,0,0,0,0,0,0v2.8c2.03-2.03,4.9-3.24,8.64-3.37.31-.02.58.23.6.54,0,0,0,.02,0,.03h0Z"/>
      <path id="Trazado_6" class="st2" d="M135.01,15.51c-.04-4.72-3.89-8.51-8.61-8.48-4.72.04-8.51,3.89-8.48,8.61.04,4.69,3.85,8.48,8.54,8.48,4.73-.02,8.56-3.87,8.54-8.6,0,0,0,0,0,0M138.68,15.51v10.84c0,.29-.24.52-.53.53h-2.6c-.29,0-.53-.23-.53-.52,0,0,0-.01,0-.02v-2.87c-2.17,2.6-5.24,3.97-8.61,3.97-6.77,0-12.14-5.3-12.14-11.94s5.37-11.94,12.21-11.94,12.21,5.3,12.21,11.94h0Z"/>
    </g>
    <g id="Grupo_21" data-name="Grupo_2">
      <g id="INTELLIGENCE1" data-name="INTELLIGENCE" class="st1">
        <g class="st1">
          <path class="st2" d="M636.11,28.08V4.95h4.29v23.12h-4.29Z"/>
          <path class="st2" d="M646.65,28.08V4.95h3.53l14.5,17.84h-1.75V4.95h4.23v23.12h-3.53l-14.47-17.84h1.75v17.84h-4.26Z"/>
          <path class="st2" d="M678.1,28.08V8.59h-7.66v-3.63h19.62v3.63h-7.66v19.49h-4.29Z"/>
          <path class="st2" d="M697.59,24.44h13.05v3.63h-17.34V4.95h16.88v3.63h-12.59v15.86ZM697.26,14.57h11.5v3.53h-11.5v-3.53Z"/>
          <path class="st2" d="M715.43,28.08V4.95h4.29v19.49h12.09v3.63h-16.38Z"/>
          <path class="st2" d="M735.21,28.08V4.95h4.29v19.49h12.09v3.63h-16.38Z"/>
          <path class="st2" d="M755,28.08V4.95h4.29v23.12h-4.29Z"/>
          <path class="st2" d="M776.34,28.41c-1.81,0-3.46-.29-4.97-.88-1.51-.58-2.82-1.42-3.95-2.49-1.12-1.08-1.99-2.33-2.61-3.77-.62-1.43-.93-3.02-.93-4.76s.31-3.33.93-4.76c.62-1.43,1.49-2.69,2.63-3.77,1.13-1.08,2.46-1.91,3.96-2.49,1.51-.58,3.19-.88,5.04-.88s3.69.32,5.27.96c1.57.64,2.9,1.57,3.98,2.81l-2.71,2.64c-.9-.9-1.88-1.57-2.92-2-1.05-.43-2.2-.64-3.45-.64s-2.36.2-3.39.59c-1.02.4-1.91.96-2.66,1.68-.75.73-1.33,1.59-1.75,2.58-.42.99-.63,2.08-.63,3.27s.21,2.25.63,3.25c.42,1,1,1.87,1.75,2.59.75.73,1.63,1.29,2.64,1.68,1.01.4,2.14.59,3.37.59,1.14,0,2.25-.18,3.32-.54,1.07-.36,2.09-.97,3.06-1.83l2.41,3.2c-1.19.97-2.58,1.7-4.16,2.2-1.59.5-3.21.74-4.86.74ZM781.33,24.91v-8.62h4.03v9.18l-4.03-.56Z"/>
          <path class="st2" d="M795.33,24.44h13.05v3.63h-17.34V4.95h16.88v3.63h-12.59v15.86ZM795,14.57h11.5v3.53h-11.5v-3.53Z"/>
          <path class="st2" d="M813.17,28.08V4.95h3.53l14.5,17.84h-1.75V4.95h4.23v23.12h-3.53l-14.47-17.84h1.75v17.84h-4.26Z"/>
          <path class="st2" d="M850.63,28.41c-1.78,0-3.42-.29-4.92-.88-1.5-.58-2.8-1.42-3.91-2.49-1.11-1.08-1.98-2.33-2.59-3.77-.62-1.43-.93-3.02-.93-4.76s.31-3.33.93-4.76c.62-1.43,1.49-2.69,2.61-3.77,1.12-1.08,2.43-1.91,3.93-2.49s3.14-.88,4.92-.88c1.89,0,3.62.33,5.19.97s2.88,1.61,3.96,2.89l-2.78,2.61c-.86-.9-1.81-1.58-2.84-2.03-1.04-.45-2.15-.68-3.34-.68s-2.32.2-3.32.59c-1,.4-1.87.96-2.61,1.68-.74.73-1.32,1.59-1.73,2.58-.42.99-.63,2.08-.63,3.27s.21,2.28.63,3.27c.42.99,1,1.85,1.73,2.58.74.73,1.61,1.29,2.61,1.68,1,.4,2.11.59,3.32.59s2.3-.23,3.34-.68c1.04-.45,1.98-1.14,2.84-2.06l2.78,2.61c-1.08,1.28-2.4,2.25-3.96,2.91s-3.3.99-5.22.99Z"/>
          <path class="st2" d="M868.24,24.44h13.05v3.63h-17.34V4.95h16.88v3.63h-12.59v15.86ZM867.91,14.57h11.5v3.53h-11.5v-3.53Z"/>
        </g>
      </g>
      <g id="Grupo_11" data-name="Grupo_1" class="st0">
        <path id="Trazado_11" data-name="Trazado_1" class="st2" d="M505.08,16.66c-.04-4.72-3.89-8.51-8.61-8.48-4.72.04-8.51,3.89-8.48,8.61.04,4.69,3.85,8.48,8.54,8.48,4.73-.02,8.56-3.87,8.54-8.6,0,0,0,0,0,0M508.75,16.66v10.84c0,.29-.24.52-.53.53h-2.6c-.29,0-.53-.23-.53-.52,0,0,0-.01,0-.02v-2.87c-2.17,2.6-5.24,3.97-8.61,3.97-6.77,0-12.14-5.3-12.14-11.94s5.37-11.94,12.21-11.94,12.21,5.3,12.21,11.94h0Z"/>
        <path id="Trazado_21" data-name="Trazado_2" class="st2" d="M512.96,28.04c-.31,0-.56-.25-.57-.56,0,0,0,0,0,0v-2.2c0-.31.26-.56.57-.57h11.84c2.13,0,3.54-1.43,3.54-3.24s-1.4-3.04-3.54-3.27l-6.24-.7c-3.8-.43-6.81-2.77-6.81-6.34s3.04-6.47,7.21-6.47h10.34c.31,0,.56.25.57.56,0,0,0,0,0,0v2.2c0,.31-.26.56-.57.57h-10.34c-2.13,0-3.54,1.43-3.54,3.1s1.4,2.87,3.54,3.1l6.24.7c3.8.43,6.81,2.8,6.81,6.47s-3.04,6.64-7.21,6.64h-11.84Z"/>
        <path id="Trazado_31" data-name="Trazado_3" class="st2" d="M552.76,4.69c.3-.01.55.22.57.52,0,.02,0,.03,0,.05v2.2c0,.31-.25.56-.56.57,0,0,0,0,0,0h-7.84v19.45c.01.3-.22.55-.52.57-.02,0-.03,0-.05,0h-2.54c-.3.01-.55-.22-.57-.52,0-.02,0-.03,0-.05V8.03h-7.84c-.31,0-.56-.23-.57-.54,0-.02,0-.04,0-.07v-2.17c-.01-.3.22-.55.52-.57.02,0,.03,0,.05,0h19.35Z"/>
        <path id="Trazado_41" data-name="Trazado_4" class="st2" d="M574.41,16.66c-.04-4.72-3.89-8.51-8.61-8.48-4.72.04-8.51,3.89-8.48,8.61.04,4.69,3.85,8.48,8.54,8.48,4.73-.02,8.56-3.87,8.54-8.6,0,0,0,0,0,0M578.08,16.66v10.84c0,.29-.24.52-.53.53h-2.6c-.29,0-.53-.23-.53-.52,0,0,0-.01,0-.02v-2.87c-2.17,2.6-5.24,3.97-8.61,3.97-6.77,0-12.14-5.3-12.14-11.94s5.37-11.94,12.21-11.94,12.21,5.3,12.21,11.94h0Z"/>
        <path id="Trazado_51" data-name="Trazado_5" class="st2" d="M595.33,5.26v2.27c0,.29-.24.53-.53.53-5.54.33-8.71,3.14-8.71,7.37v12.04c0,.31-.25.56-.56.57,0,0,0,0,0,0h-2.54c-.3.01-.55-.22-.57-.52,0-.02,0-.03,0-.05V5.26c-.01-.3.22-.55.52-.57.02,0,.03,0,.05,0h2.54c.31,0,.56.25.57.56,0,0,0,0,0,0v2.8c2.03-2.03,4.9-3.24,8.64-3.37.31-.02.58.23.6.54,0,0,0,.02,0,.03h0Z"/>
        <path id="Trazado_61" data-name="Trazado_6" class="st2" d="M616.75,16.66c-.04-4.72-3.89-8.51-8.61-8.48-4.72.04-8.51,3.89-8.48,8.61.04,4.69,3.85,8.48,8.54,8.48,4.73-.02,8.56-3.87,8.54-8.6,0,0,0,0,0,0M620.41,16.66v10.84c0,.29-.24.52-.53.53h-2.6c-.29,0-.53-.23-.53-.52,0,0,0-.01,0-.02v-2.87c-2.17,2.6-5.24,3.97-8.61,3.97-6.77,0-12.14-5.3-12.14-11.94s5.37-11.94,12.21-11.94,12.21,5.3,12.21,11.94h0Z"/>
      </g>
    </g>
  </g>
</svg>